<svg xmlns="http://www.w3.org/2000/svg" width="144" height="144" viewBox="0 0 24 24"><g fill="#FFCB3E" fill-rule="evenodd"><path d="M15.497 8.133h-2.5V13.5h5.367V11h-2.867z"></path><path d="M14.247 18a5.757 5.757 0 01-5.75-5.75c0-3.171 2.58-5.75 5.75-5.75s5.75 2.579 5.75 5.75-2.58 5.75-5.75 5.75m0-14A8.236 8.236 0 007.89 6.998H2.257v2.5H6.48A8.236 8.236 0 006.102 11H1v2.5h5.102c.08.519.206 1.021.377 1.503H1.997v2.5h5.894a8.236 8.236 0 006.356 2.997c4.55 0 8.25-3.701 8.25-8.25 0-4.549-3.7-8.25-8.25-8.25"></path></g></svg>
